# Blender v2.79 (sub 0) OBJ File: ''
# www.blender.org
mtllib model.mtl
v -0.745458 -0.447339 2.233170
v -0.745458 1.552661 2.233170
v -0.745458 -0.447339 0.233170
v -0.745458 1.552661 0.233170
v 1.254542 -0.447339 2.233170
v 1.254542 1.552661 2.233170
v 1.254542 -0.447339 0.233170
v 1.254542 1.552661 0.233170
vt 0.333333 0.333333
vt 0.666667 0.000000
vt 0.666667 0.333333
vt 0.000000 0.666667
vt 0.333333 0.333333
vt 0.333333 0.666667
vt 0.000000 0.333333
vt 0.333333 0.000000
vt 0.333333 0.333333
vt 0.666667 0.666667
vt 0.333333 0.666667
vt 0.666667 0.333333
vt 1.000000 0.000000
vt 1.000000 0.333333
vt 0.333333 1.000000
vt 0.000000 0.666667
vt 0.333333 0.666667
vt 0.333333 0.000000
vt 0.000000 0.000000
vt 0.666667 0.333333
vt 0.666667 0.000000
vt 0.000000 1.000000
vn -0.5773 0.5773 0.5773
vn -0.5773 -0.5773 -0.5773
vn -0.5773 -0.5773 0.5773
vn -0.5773 0.5773 -0.5773
vn 0.5773 -0.5773 -0.5773
vn 0.5773 0.5773 -0.5773
vn 0.5773 -0.5773 0.5773
vn 0.5773 0.5773 0.5773
usemtl None
s 1
f 2/1/1 3/2/2 1/3/3
f 4/4/4 7/5/5 3/6/2
f 8/7/6 5/8/7 7/5/5
f 6/9/8 1/10/3 5/11/7
f 7/12/5 1/13/3 3/14/2
f 4/15/4 6/16/8 8/17/6
f 2/1/1 4/18/4 3/2/2
f 4/4/4 8/7/6 7/5/5
f 8/7/6 6/19/8 5/8/7
f 6/9/8 2/20/1 1/10/3
f 7/12/5 5/21/7 1/13/3
f 4/15/4 2/22/1 6/16/8
